<?xml version="1.0" encoding="UTF-8"?>
<!DOCTYPE svg PUBLIC "-//W3C//DTD SVG 1.1//EN" "http://www.w3.org/Graphics/SVG/1.1/DTD/svg11.dtd">
<svg xmlns="http://www.w3.org/2000/svg" version="1.1" width="961px" height="267px" style="shape-rendering:geometricPrecision; text-rendering:geometricPrecision; image-rendering:optimizeQuality; fill-rule:evenodd; clip-rule:evenodd" xmlns:xlink="http://www.w3.org/1999/xlink">
<g><path style="opacity:0.974" fill="#652655" d="M 29.5,-0.5 C 33.8333,-0.5 38.1667,-0.5 42.5,-0.5C 66.8643,6.86677 76.3643,23.2001 71,48.5C 61.6441,68.4267 46.1441,75.9267 24.5,71C 10.8608,65.5373 2.52745,55.704 -0.5,41.5C -0.5,37.8333 -0.5,34.1667 -0.5,30.5C 3.38611,14.2801 13.3861,3.9468 29.5,-0.5 Z"/></g>
<g><path style="opacity:0.973" fill="#652655" d="M 128.5,-0.5 C 132.5,-0.5 136.5,-0.5 140.5,-0.5C 166.697,7.58878 175.864,24.9221 168,51.5C 158.937,67.7812 145.104,74.6145 126.5,72C 102.892,63.953 94.0586,47.7863 100,23.5C 105.329,10.4353 114.829,2.43532 128.5,-0.5 Z"/></g>
<g><path style="opacity:0.913" fill="#6a6259" d="M 311.5,2.5 C 313.833,2.5 316.167,2.5 318.5,2.5C 318.5,32.5 318.5,62.5 318.5,92.5C 321.898,92.1796 325.232,92.513 328.5,93.5C 314.167,94.8333 299.833,94.8333 285.5,93.5C 288.768,92.513 292.102,92.1796 295.5,92.5C 295.5,63.8333 295.5,35.1667 295.5,6.5C 291.928,6.93758 288.428,7.60425 285,8.5C 284.833,8.16667 284.667,7.83333 284.5,7.5C 293.571,5.54259 302.571,3.87593 311.5,2.5 Z"/></g>
<g><path style="opacity:0.945" fill="#6a6259" d="M 426.5,2.5 C 428.833,2.5 431.167,2.5 433.5,2.5C 433.333,15.5043 433.5,28.5043 434,41.5C 439.919,32.6345 448.085,29.8012 458.5,33C 467.351,36.5231 472.518,43.0231 474,52.5C 476.869,72.6119 469.036,86.4452 450.5,94C 447.5,94.5 444.5,95 441.5,95.5C 434.255,93.8075 427.088,91.8075 420,89.5C 416.196,89.9692 413.529,91.9692 412,95.5C 411.5,65.8352 411.333,36.1685 411.5,6.5C 407.601,6.96512 403.767,7.63179 400,8.5C 399.833,8.16667 399.667,7.83333 399.5,7.5C 400.333,7.16667 401.167,6.83333 402,6.5C 410.34,5.35867 418.506,4.02534 426.5,2.5 Z M 439.5,36.5 C 445.853,36.0122 449.353,39.0122 450,45.5C 450.903,58.8811 450.57,72.2145 449,85.5C 447.657,91.9169 443.824,94.4169 437.5,93C 435.951,91.786 434.785,90.286 434,88.5C 433.333,74.1667 433.333,59.8333 434,45.5C 435.329,42.171 437.163,39.171 439.5,36.5 Z"/></g>
<g><path style="opacity:0.926" fill="#6a6259" d="M 256.5,31.5 C 264.624,31.4725 272.291,33.3059 279.5,37C 284.15,41.5744 285.65,47.0744 284,53.5C 283.215,55.286 282.049,56.786 280.5,58C 271.249,62.1167 265.249,59.45 262.5,50C 266.667,46.1801 267.5,41.6801 265,36.5C 257.3,31.1934 252.3,33.1934 250,42.5C 247.113,55.0137 248.447,67.0137 254,78.5C 261.37,86.8103 269.537,87.6436 278.5,81C 280.869,78.4298 282.869,75.5964 284.5,72.5C 285.167,71.1667 285.833,71.1667 286.5,72.5C 275.481,94.3402 258.814,100.174 236.5,90C 224.48,79.0824 221.313,65.9158 227,50.5C 233.538,38.9848 243.371,32.6515 256.5,31.5 Z"/></g>
<g><path style="opacity:0.945" fill="#6a6259" d="M 355.5,31.5 C 356.332,48.6618 356.832,65.9952 357,83.5C 358.215,89.1912 361.382,90.6912 366.5,88C 369.106,86.0616 370.939,83.5616 372,80.5C 373.413,65.8835 373.913,51.2168 373.5,36.5C 370.934,36.3444 368.434,36.6777 366,37.5C 365.5,37.1667 365,36.8333 364.5,36.5C 374.695,34.7824 384.862,33.1157 395,31.5C 395.333,49.5 395.667,67.5 396,85.5C 396.347,87.1802 397.347,88.1802 399,88.5C 401.411,87.0128 403.911,86.1794 406.5,86C 398.962,93.7362 389.962,96.4029 379.5,94C 375.908,90.9843 373.742,87.151 373,82.5C 365.402,94.6959 354.902,97.8625 341.5,92C 338.567,89.7357 336.4,86.9024 335,83.5C 334.5,67.8369 334.333,52.1702 334.5,36.5C 330.837,37.1125 327.17,37.2792 323.5,37C 334.249,35.0151 344.916,33.1818 355.5,31.5 Z"/></g>
<g><path style="opacity:0.974" fill="#652655" d="M -0.5,138.5 C -0.5,134.833 -0.5,131.167 -0.5,127.5C 5.60009,104.436 20.6001,94.2691 44.5,97C 62.7201,102.114 72.0534,114.114 72.5,133C 71.0998,155.567 59.0998,167.734 36.5,169.5C 16.499,168.156 4.16565,157.822 -0.5,138.5 Z"/></g>
<g><path style="opacity:0.974" fill="#652655" d="M 126.5,96.5 C 152.781,94.451 167.781,106.451 171.5,132.5C 168.646,158.187 154.313,170.354 128.5,169C 105.232,162.646 95.3988,147.48 99,123.5C 103.454,109.545 112.621,100.545 126.5,96.5 Z"/></g>
<g><path style="opacity:0.861" fill="#6a6259" d="M 462.5,112.5 C 463.873,112.343 465.207,112.51 466.5,113C 492.545,147.59 518.712,182.09 545,216.5C 545.5,182.835 545.667,149.168 545.5,115.5C 548.5,115.5 551.5,115.5 554.5,115.5C 554.5,156.833 554.5,198.167 554.5,239.5C 553.127,239.657 551.793,239.49 550.5,239C 524.333,204.167 498.167,169.333 472,134.5C 471.5,168.498 471.333,202.498 471.5,236.5C 468.5,236.5 465.5,236.5 462.5,236.5C 462.5,195.167 462.5,153.833 462.5,112.5 Z"/></g>
<g><path style="opacity:0.894" fill="#6a6259" d="M 376.5,113.5 C 412.159,114.664 433.659,132.664 441,167.5C 443.708,197.755 431.542,219.589 404.5,233C 376.078,243.186 351.578,237.352 331,215.5C 313.394,189.738 313.061,163.738 330,137.5C 342.377,123.23 357.877,115.23 376.5,113.5 Z M 371.5,122.5 C 398.806,120.393 417.973,131.726 429,156.5C 437.234,185.478 428.734,207.978 403.5,224C 375.979,234.913 353.146,228.746 335,205.5C 322.511,182.399 324.177,160.399 340,139.5C 348.796,130.521 359.296,124.854 371.5,122.5 Z"/></g>
<g><path style="opacity:0.912" fill="#6a6259" d="M 224.5,115.5 C 239.837,115.333 255.17,115.5 270.5,116C 289.415,120.311 297.582,132.144 295,151.5C 293.559,158.934 289.726,164.768 283.5,169C 301.58,176.988 308.746,190.821 305,210.5C 300.617,225.88 290.451,234.38 274.5,236C 257.837,236.5 241.17,236.667 224.5,236.5C 224.5,196.167 224.5,155.833 224.5,115.5 Z M 233.5,123.5 C 244.505,123.333 255.505,123.5 266.5,124C 279.007,125.506 285.674,132.506 286.5,145C 286.925,154.828 282.592,161.495 273.5,165C 260.218,166.403 246.885,166.903 233.5,166.5C 233.5,152.167 233.5,137.833 233.5,123.5 Z M 233.5,174.5 C 246.837,174.333 260.171,174.5 273.5,175C 291.64,178.835 299.14,190.002 296,208.5C 292.176,220.978 283.676,227.478 270.5,228C 258.171,228.5 245.838,228.667 233.5,228.5C 233.5,210.5 233.5,192.5 233.5,174.5 Z"/></g>
<g><path style="opacity:0.887" fill="#6a6259" d="M 574.5,115.5 C 577.777,115.216 580.943,115.549 584,116.5C 597.39,150.946 611.056,185.279 625,219.5C 638.642,184.903 652.475,150.403 666.5,116C 669.5,115.333 672.5,115.333 675.5,116C 659.269,156.856 642.936,197.69 626.5,238.5C 625.311,239.429 623.978,239.762 622.5,239.5C 606.5,198.167 590.5,156.833 574.5,115.5 Z"/></g>
<g><path style="opacity:0.911" fill="#6a6259" d="M 695.5,115.5 C 698.5,115.5 701.5,115.5 704.5,115.5C 704.5,155.833 704.5,196.167 704.5,236.5C 701.5,236.5 698.5,236.5 695.5,236.5C 695.5,196.167 695.5,155.833 695.5,115.5 Z"/></g>
<g><path style="opacity:0.886" fill="#6a6259" d="M 725.5,115.5 C 728.518,115.335 731.518,115.502 734.5,116C 748.525,150.403 762.358,184.903 776,219.5C 789.944,185.279 803.61,150.946 817,116.5C 820.125,115.213 823.291,115.213 826.5,116.5C 810.064,157.31 793.731,198.144 777.5,239C 775.112,239.865 773.612,239.032 773,236.5C 757.062,196.182 741.229,155.849 725.5,115.5 Z"/></g>
<g><path style="opacity:0.994" fill="#6a6259" d="M 847.5,115.5 C 850.167,115.5 852.833,115.5 855.5,115.5C 855.5,155.833 855.5,196.167 855.5,236.5C 852.833,236.5 850.167,236.5 847.5,236.5C 847.5,196.167 847.5,155.833 847.5,115.5 Z"/></g>
<g><path style="opacity:0.895" fill="#6a6259" d="M 960.5,156.5 C 960.5,159.5 960.5,162.5 960.5,165.5C 958.474,183.875 948.807,196.542 931.5,203.5C 940.167,214.167 948.833,224.833 957.5,235.5C 953.878,236.659 950.211,236.825 946.5,236C 937.928,226.185 929.595,216.185 921.5,206C 913.173,205.5 904.84,205.334 896.5,205.5C 896.5,215.833 896.5,226.167 896.5,236.5C 893.5,236.5 890.5,236.5 887.5,236.5C 887.5,196.167 887.5,155.833 887.5,115.5C 898.838,115.333 910.172,115.5 921.5,116C 944.63,119.96 957.63,133.46 960.5,156.5 Z M 896.5,123.5 C 910.491,121.962 923.825,124.128 936.5,130C 950.944,143.106 954.777,158.94 948,177.5C 943.147,187.355 935.314,193.522 924.5,196C 915.218,197.316 905.884,197.816 896.5,197.5C 896.5,172.833 896.5,148.167 896.5,123.5 Z"/></g>
<g><path style="opacity:0.974" fill="#652655" d="M 39.5,266.5 C 37.5,266.5 35.5,266.5 33.5,266.5C 14.7223,263.722 3.38895,253.055 -0.5,234.5C -0.5,231.167 -0.5,227.833 -0.5,224.5C 3.67937,204.667 16.0127,194.001 36.5,192.5C 62.6991,196.196 74.5325,211.196 72,237.5C 67.2375,254.102 56.4042,263.768 39.5,266.5 Z"/></g>
<g><path style="opacity:0.974" fill="#652655" d="M 137.5,266.5 C 135.5,266.5 133.5,266.5 131.5,266.5C 104.616,260.433 94.1157,243.767 100,216.5C 109.892,196.474 125.725,189.307 147.5,195C 167.526,204.892 174.693,220.725 169,242.5C 162.933,256.41 152.433,264.41 137.5,266.5 Z"/></g>
</svg>
