<?xml version="1.0" standalone="no"?>
<!DOCTYPE svg PUBLIC "-//W3C//DTD SVG 20010904//EN"
 "http://www.w3.org/TR/2001/REC-SVG-20010904/DTD/svg10.dtd">
<svg version="1.0" xmlns="http://www.w3.org/2000/svg"
 width="1245.000000pt" height="1280.000000pt" viewBox="0 0 1245.000000 1280.000000"
 preserveAspectRatio="xMidYMid meet">
<metadata>
Created by potrace 1.15, written by Peter Selinger 2001-2017
</metadata>
<g transform="translate(0.000000,1280.000000) scale(0.100000,-0.100000)"
fill="#000000" stroke="none">
<path d="M8320 12751 c-175 -46 -576 -148 -1720 -438 -672 -170 -831 -211
-836 -216 -2 -2 27 -147 65 -323 38 -175 68 -320 67 -321 -1 -2 -218 58 -482
133 -263 74 -686 194 -939 265 -253 72 -635 180 -848 240 -214 61 -390 109
-392 107 -1 -2 -33 -97 -70 -213 -36 -115 -183 -561 -325 -990 -300 -903 -392
-1206 -494 -1610 -112 -446 -180 -829 -223 -1255 -22 -222 -25 -923 -5 -1125
37 -368 90 -685 167 -1010 26 -109 128 -476 145 -520 5 -14 3 -109 -5 -242
-62 -962 -250 -1979 -514 -2773 -169 -509 -359 -877 -504 -977 l-38 -26 -207
6 c-114 4 -268 12 -342 18 -202 17 -513 17 -580 0 -124 -31 -200 -93 -219
-180 -5 -25 -13 -110 -16 -187 l-7 -141 59 -45 c291 -222 665 -404 1345 -654
193 -71 254 -88 410 -118 557 -107 820 -135 1313 -143 l360 -6 63 184 c92 274
86 346 -43 474 -81 81 -195 144 -525 288 -424 186 -493 221 -522 263 -64 90
-91 331 -69 599 71 852 483 2191 1016 3301 l82 171 139 139 c772 775 1295
1765 1652 3129 102 391 179 743 312 1425 164 847 294 1450 313 1450 4 0 7 -7
7 -16 0 -21 222 -1113 285 -1399 227 -1043 456 -1749 779 -2407 358 -728 789
-1316 1420 -1935 l226 -223 81 -162 c495 -988 906 -2187 1064 -3098 75 -438
78 -804 8 -949 -25 -51 -69 -77 -488 -288 -203 -102 -399 -204 -435 -226 -177
-108 -265 -212 -264 -316 0 -49 9 -75 78 -217 l79 -162 116 -13 c163 -19 564
-17 766 5 220 23 526 68 805 117 201 36 261 51 415 104 571 199 944 367 1410
633 226 130 212 102 165 339 -47 236 -91 312 -215 369 -116 53 -235 54 -705 4
-594 -63 -588 -62 -653 -19 -220 146 -490 710 -716 1499 -230 805 -408 1815
-462 2625 l-11 180 41 150 c117 425 181 845 200 1315 26 668 -54 1370 -248
2173 -127 524 -242 889 -736 2332 -75 220 -174 524 -219 675 l-83 275 -54 2
c-37 1 -111 -13 -239 -46z"/>
</g>
</svg>
